# xmcd
#
# Track frame offsets: 
#        150
#        16052
#        33515
#        51795
#        66335
#        82370
#        97502
#        108322
#        120842
#        143217
#
# Disc length: 2107 seconds
#
# Revision: 2
# Processed by: cddbd v1.5.2PL0 Copyright (c) Steve Scherf et al.
# Submitted via: ExactAudioCopy v1.0b3
#
DISCID=7908390a
DTITLE=Z.Z. Hill - Blues Business
DYEAR=1997
DGENRE=Blues
TTITLE0=Right Arm For Your Love
TTITLE1=Pleasw Don't  Make Me(Do Something Bad to You)
TTITLE2=Friday Is My Day
TTITLE3=Get You Some Business
TTITLE4=I`m A Blues Man
TTITLE5=Outside Thang
TTITLE6=Woman Don't Go Astray
TTITLE7=You're Ruining My Bad Reputation
TTITLE8=Everybody Knows About My Good Thing
TTITLE9=She Got The Goods On Me
EXTD=MALACO
EXTT0=
EXTT1=
EXTT2=
EXTT3=
EXTT4=
EXTT5=
EXTT6=
EXTT7=
EXTT8=
EXTT9=
PLAYORDER=
